<svg xmlns="http://www.w3.org/2000/svg" viewBox="0 0 800 260" role="img" aria-label="TripM8 AI glasses">
  <defs>
    <linearGradient id="fr" x1="0" y1="0" x2="0" y2="1">
      <stop offset="0" stop-color="#43484F"/><stop offset=".42" stop-color="#1B1E23"/><stop offset="1" stop-color="#0A0B0D"/>
    </linearGradient>
    <linearGradient id="ln" x1=".1" y1="0" x2=".9" y2="1">
      <stop offset="0" stop-color="#6B747F"/><stop offset=".38" stop-color="#2A2F36"/><stop offset="1" stop-color="#0D0F12"/>
    </linearGradient>
    <linearGradient id="gl" x1="0" y1="0" x2="1" y2="1">
      <stop offset="0" stop-color="#fff" stop-opacity=".5"/>
      <stop offset=".42" stop-color="#fff" stop-opacity=".04"/>
      <stop offset="1" stop-color="#fff" stop-opacity="0"/>
    </linearGradient>
    <radialGradient id="sh" cx=".5" cy=".5" r=".5">
      <stop offset="0" stop-color="#0B1220" stop-opacity=".3"/><stop offset="1" stop-color="#0B1220" stop-opacity="0"/>
    </radialGradient>
  </defs>

  <ellipse cx="400" cy="216" rx="290" ry="26" fill="url(#sh)"/>

  <!-- temples (arms) sweeping back -->
  <path d="M120 84 C 76 86 48 100 34 126 C 26 141 32 154 46 152 C 62 150 70 132 86 120 C 98 111 112 106 128 104 Z" fill="url(#fr)"/>
  <path d="M680 84 C 724 86 752 100 766 126 C 774 141 768 154 754 152 C 738 150 730 132 714 120 C 702 111 688 106 672 104 Z" fill="url(#fr)"/>

  <!-- frame front -->
  <path d="M118 76 h564 a30 30 0 0 1 30 30 v22 a56 56 0 0 1 -56 56 H438 a44 44 0 0 1 -43 -35 l-3 -14 h-16 l-3 14 a44 44 0 0 1 -43 35 H144 a56 56 0 0 1 -56 -56 v-22 a30 30 0 0 1 30 -30 Z" fill="url(#fr)"/>

  <!-- lenses -->
  <path d="M136 98 h216 a10 10 0 0 1 10 12 l-8 36 a34 34 0 0 1 -33 27 H160 a34 34 0 0 1 -34 -34 v-31 a10 10 0 0 1 10 -10 Z" fill="url(#ln)"/>
  <path d="M448 98 h216 a10 10 0 0 1 10 10 v31 a34 34 0 0 1 -34 34 H479 a34 34 0 0 1 -33 -27 l-8 -36 a10 10 0 0 1 10 -12 Z" fill="url(#ln)"/>
  <path d="M136 98 h216 a10 10 0 0 1 10 12 l-8 36 a34 34 0 0 1 -33 27 H160 a34 34 0 0 1 -34 -34 v-31 a10 10 0 0 1 10 -10 Z" fill="url(#gl)"/>
  <path d="M448 98 h216 a10 10 0 0 1 10 10 v31 a34 34 0 0 1 -34 34 H479 a34 34 0 0 1 -33 -27 l-8 -36 a10 10 0 0 1 10 -12 Z" fill="url(#gl)"/>

  <!-- camera / indicator -->
  <circle cx="158" cy="116" r="8" fill="#10151C"/>
  <circle cx="158" cy="116" r="4" fill="#3B82F6"/>

  <!-- brand mark on temple -->
  <g transform="translate(628 104) scale(.68)" fill="#fff" opacity=".9">
    <path d="M18 0 32 26H24.2L18 15.2 11.8 26H4Z"/>
  </g>
</svg>
